<mxfile host="Electron" modified="2024-02-22T10:33:53.903Z" agent="Mozilla/5.0 (Macintosh; Intel Mac OS X 10_15_7) AppleWebKit/537.36 (KHTML, like Gecko) draw.io/22.1.21 Chrome/120.0.6099.109 Electron/28.1.0 Safari/537.36" etag="XHQTc-BXb81EqhFRH9VS" version="22.1.21" type="device">
  <diagram id="RAkj_Gdpd3_wO7ePidi0" name="Page-1">
    <mxGraphModel dx="1114" dy="837" grid="1" gridSize="10" guides="1" tooltips="1" connect="1" arrows="1" fold="1" page="1" pageScale="1" pageWidth="1654" pageHeight="2336" math="0" shadow="0">
      <root>
        <mxCell id="0" />
        <mxCell id="1" parent="0" />
        <mxCell id="ruq4Phm5Znmhf1syDyN8-1" value="设计模式" style="ellipse;whiteSpace=wrap;html=1;aspect=fixed;" parent="1" vertex="1">
          <mxGeometry x="190" y="390" width="80" height="80" as="geometry" />
        </mxCell>
        <mxCell id="ruq4Phm5Znmhf1syDyN8-2" value="" style="ellipse;whiteSpace=wrap;html=1;aspect=fixed;" parent="1" vertex="1">
          <mxGeometry x="290" y="60" width="270" height="270" as="geometry" />
        </mxCell>
        <mxCell id="ruq4Phm5Znmhf1syDyN8-3" value="" style="ellipse;whiteSpace=wrap;html=1;aspect=fixed;" parent="1" vertex="1">
          <mxGeometry x="290" y="470" width="270" height="270" as="geometry" />
        </mxCell>
        <mxCell id="ruq4Phm5Znmhf1syDyN8-4" value="" style="ellipse;whiteSpace=wrap;html=1;aspect=fixed;" parent="1" vertex="1">
          <mxGeometry x="640" y="240" width="270" height="270" as="geometry" />
        </mxCell>
        <mxCell id="ruq4Phm5Znmhf1syDyN8-6" value="工厂模式" style="text;html=1;strokeColor=none;fillColor=none;align=center;verticalAlign=middle;whiteSpace=wrap;rounded=0;" parent="1" vertex="1">
          <mxGeometry x="370" y="100" width="80" height="20" as="geometry" />
        </mxCell>
        <mxCell id="ruq4Phm5Znmhf1syDyN8-7" value="抽象工厂模式" style="text;html=1;strokeColor=none;fillColor=none;align=center;verticalAlign=middle;whiteSpace=wrap;rounded=0;" parent="1" vertex="1">
          <mxGeometry x="370" y="160" width="80" height="20" as="geometry" />
        </mxCell>
        <mxCell id="ruq4Phm5Znmhf1syDyN8-8" value="单例模式" style="text;html=1;strokeColor=none;fillColor=none;align=center;verticalAlign=middle;whiteSpace=wrap;rounded=0;" parent="1" vertex="1">
          <mxGeometry x="370" y="220" width="80" height="20" as="geometry" />
        </mxCell>
        <mxCell id="ruq4Phm5Znmhf1syDyN8-9" value="建造模式" style="text;html=1;strokeColor=none;fillColor=none;align=center;verticalAlign=middle;whiteSpace=wrap;rounded=0;" parent="1" vertex="1">
          <mxGeometry x="370" y="280" width="80" height="20" as="geometry" />
        </mxCell>
        <mxCell id="ruq4Phm5Znmhf1syDyN8-10" value="原型模式" style="text;html=1;strokeColor=none;fillColor=none;align=center;verticalAlign=middle;whiteSpace=wrap;rounded=0;" parent="1" vertex="1">
          <mxGeometry x="460" y="185" width="80" height="20" as="geometry" />
        </mxCell>
        <mxCell id="ruq4Phm5Znmhf1syDyN8-11" value="创建模式" style="text;html=1;strokeColor=none;fillColor=none;align=center;verticalAlign=middle;whiteSpace=wrap;rounded=0;fontStyle=1" parent="1" vertex="1">
          <mxGeometry x="380" y="350" width="80" height="20" as="geometry" />
        </mxCell>
        <mxCell id="ruq4Phm5Znmhf1syDyN8-12" value="结构模式" style="text;html=1;strokeColor=none;fillColor=none;align=center;verticalAlign=middle;whiteSpace=wrap;rounded=0;fontStyle=1" parent="1" vertex="1">
          <mxGeometry x="380" y="770" width="80" height="20" as="geometry" />
        </mxCell>
        <mxCell id="ruq4Phm5Znmhf1syDyN8-13" value="行为模式" style="text;html=1;strokeColor=none;fillColor=none;align=center;verticalAlign=middle;whiteSpace=wrap;rounded=0;fontStyle=1" parent="1" vertex="1">
          <mxGeometry x="735" y="530" width="80" height="20" as="geometry" />
        </mxCell>
        <mxCell id="ruq4Phm5Znmhf1syDyN8-15" value="中介者模式" style="text;html=1;strokeColor=none;fillColor=none;align=center;verticalAlign=middle;whiteSpace=wrap;rounded=0;" parent="1" vertex="1">
          <mxGeometry x="735" y="260" width="80" height="20" as="geometry" />
        </mxCell>
        <mxCell id="ruq4Phm5Znmhf1syDyN8-16" value="外观模式" style="text;html=1;strokeColor=none;fillColor=none;align=center;verticalAlign=middle;whiteSpace=wrap;rounded=0;" parent="1" vertex="1">
          <mxGeometry x="370" y="490" width="80" height="20" as="geometry" />
        </mxCell>
        <mxCell id="ruq4Phm5Znmhf1syDyN8-17" value="适配器模式" style="text;html=1;strokeColor=none;fillColor=none;align=center;verticalAlign=middle;whiteSpace=wrap;rounded=0;" parent="1" vertex="1">
          <mxGeometry x="320" y="540" width="80" height="20" as="geometry" />
        </mxCell>
        <mxCell id="ruq4Phm5Znmhf1syDyN8-18" value="代理模式" style="text;html=1;strokeColor=none;fillColor=none;align=center;verticalAlign=middle;whiteSpace=wrap;rounded=0;" parent="1" vertex="1">
          <mxGeometry x="430" y="540" width="80" height="20" as="geometry" />
        </mxCell>
        <mxCell id="ruq4Phm5Znmhf1syDyN8-20" value="组合模式" style="text;html=1;strokeColor=none;fillColor=none;align=center;verticalAlign=middle;whiteSpace=wrap;rounded=0;" parent="1" vertex="1">
          <mxGeometry x="310" y="600" width="80" height="20" as="geometry" />
        </mxCell>
        <mxCell id="ruq4Phm5Znmhf1syDyN8-21" value="享元模式" style="text;html=1;strokeColor=none;fillColor=none;align=center;verticalAlign=middle;whiteSpace=wrap;rounded=0;" parent="1" vertex="1">
          <mxGeometry x="420" y="600" width="80" height="20" as="geometry" />
        </mxCell>
        <mxCell id="ruq4Phm5Znmhf1syDyN8-22" value="装饰模式" style="text;html=1;strokeColor=none;fillColor=none;align=center;verticalAlign=middle;whiteSpace=wrap;rounded=0;" parent="1" vertex="1">
          <mxGeometry x="320" y="660" width="80" height="20" as="geometry" />
        </mxCell>
        <mxCell id="ruq4Phm5Znmhf1syDyN8-23" value="桥梁模式" style="text;html=1;strokeColor=none;fillColor=none;align=center;verticalAlign=middle;whiteSpace=wrap;rounded=0;" parent="1" vertex="1">
          <mxGeometry x="420" y="660" width="80" height="20" as="geometry" />
        </mxCell>
        <mxCell id="ruq4Phm5Znmhf1syDyN8-24" value="观察者模式" style="text;html=1;strokeColor=none;fillColor=none;align=center;verticalAlign=middle;whiteSpace=wrap;rounded=0;" parent="1" vertex="1">
          <mxGeometry x="670" y="300" width="80" height="20" as="geometry" />
        </mxCell>
        <mxCell id="ruq4Phm5Znmhf1syDyN8-25" value="命令模式" style="text;html=1;strokeColor=none;fillColor=none;align=center;verticalAlign=middle;whiteSpace=wrap;rounded=0;" parent="1" vertex="1">
          <mxGeometry x="780" y="300" width="80" height="20" as="geometry" />
        </mxCell>
        <mxCell id="ruq4Phm5Znmhf1syDyN8-26" value="迭代器模式" style="text;html=1;strokeColor=none;fillColor=none;align=center;verticalAlign=middle;whiteSpace=wrap;rounded=0;" parent="1" vertex="1">
          <mxGeometry x="655" y="340" width="80" height="20" as="geometry" />
        </mxCell>
        <mxCell id="ruq4Phm5Znmhf1syDyN8-27" value="模板方法模式" style="text;html=1;strokeColor=none;fillColor=none;align=center;verticalAlign=middle;whiteSpace=wrap;rounded=0;" parent="1" vertex="1">
          <mxGeometry x="780" y="340" width="80" height="20" as="geometry" />
        </mxCell>
        <mxCell id="ruq4Phm5Znmhf1syDyN8-28" value="策略模式" style="text;html=1;strokeColor=none;fillColor=none;align=center;verticalAlign=middle;whiteSpace=wrap;rounded=0;" parent="1" vertex="1">
          <mxGeometry x="660" y="380" width="80" height="20" as="geometry" />
        </mxCell>
        <mxCell id="ruq4Phm5Znmhf1syDyN8-29" value="状态模式" style="text;html=1;strokeColor=none;fillColor=none;align=center;verticalAlign=middle;whiteSpace=wrap;rounded=0;" parent="1" vertex="1">
          <mxGeometry x="780" y="380" width="80" height="20" as="geometry" />
        </mxCell>
        <mxCell id="ruq4Phm5Znmhf1syDyN8-30" value="备忘录模式" style="text;html=1;strokeColor=none;fillColor=none;align=center;verticalAlign=middle;whiteSpace=wrap;rounded=0;" parent="1" vertex="1">
          <mxGeometry x="670" y="420" width="80" height="20" as="geometry" />
        </mxCell>
        <mxCell id="ruq4Phm5Znmhf1syDyN8-31" value="解释器模式" style="text;html=1;strokeColor=none;fillColor=none;align=center;verticalAlign=middle;whiteSpace=wrap;rounded=0;" parent="1" vertex="1">
          <mxGeometry x="770" y="420" width="80" height="20" as="geometry" />
        </mxCell>
        <mxCell id="ruq4Phm5Znmhf1syDyN8-32" value="责任链模式" style="text;html=1;strokeColor=none;fillColor=none;align=center;verticalAlign=middle;whiteSpace=wrap;rounded=0;" parent="1" vertex="1">
          <mxGeometry x="690" y="460" width="80" height="20" as="geometry" />
        </mxCell>
        <mxCell id="ruq4Phm5Znmhf1syDyN8-33" value="访问者模式" style="text;html=1;strokeColor=none;fillColor=none;align=center;verticalAlign=middle;whiteSpace=wrap;rounded=0;" parent="1" vertex="1">
          <mxGeometry x="780" y="460" width="80" height="20" as="geometry" />
        </mxCell>
        <mxCell id="ruq4Phm5Znmhf1syDyN8-34" value="记忆口诀：&lt;br&gt;抽汞建单元&lt;br&gt;桥外是享代组装&lt;br&gt;车模这爹观访中装备解命" style="text;html=1;strokeColor=none;fillColor=none;align=center;verticalAlign=middle;whiteSpace=wrap;rounded=0;" parent="1" vertex="1">
          <mxGeometry x="405" y="850" width="455" height="120" as="geometry" />
        </mxCell>
        <mxCell id="m4uvxcwEyRzMP0YH9MtL-1" value="a sb cd fp" style="text;html=1;strokeColor=none;fillColor=none;align=center;verticalAlign=middle;whiteSpace=wrap;rounded=0;" vertex="1" parent="1">
          <mxGeometry x="510" y="710" width="60" height="30" as="geometry" />
        </mxCell>
        <mxCell id="m4uvxcwEyRzMP0YH9MtL-2" value="mis co tv" style="text;html=1;strokeColor=none;fillColor=none;align=center;verticalAlign=middle;whiteSpace=wrap;rounded=0;" vertex="1" parent="1">
          <mxGeometry x="930" y="415" width="60" height="30" as="geometry" />
        </mxCell>
      </root>
    </mxGraphModel>
  </diagram>
</mxfile>
